<?xml version="1.0" encoding="UTF-8" standalone="no"?>
<!-- Created with Inkscape (http://www.inkscape.org/) -->

<svg
   xmlns:dc="http://purl.org/dc/elements/1.1/"
   xmlns:cc="http://creativecommons.org/ns#"
   xmlns:rdf="http://www.w3.org/1999/02/22-rdf-syntax-ns#"
   xmlns:svg="http://www.w3.org/2000/svg"
   xmlns="http://www.w3.org/2000/svg"
   xmlns:sodipodi="http://sodipodi.sourceforge.net/DTD/sodipodi-0.dtd"
   xmlns:inkscape="http://www.inkscape.org/namespaces/inkscape"
   width="19.207087mm"
   height="16.644812mm"
   viewBox="0 0 19.207087 16.644812"
   version="1.1"
   id="svg8"
   inkscape:export-filename="C:\Users\prati\logo.png"
   inkscape:export-xdpi="96"
   inkscape:export-ydpi="96"
   inkscape:version="0.92.4 (5da689c313, 2019-01-14)"
   sodipodi:docname="drawing.svg">
  <defs
     id="defs2" />
  <sodipodi:namedview
     id="base"
     pagecolor="#ffffff"
     bordercolor="#666666"
     borderopacity="1.0"
     inkscape:pageopacity="0.0"
     inkscape:pageshadow="2"
     inkscape:zoom="3.959798"
     inkscape:cx="35.039415"
     inkscape:cy="42.646594"
     inkscape:document-units="mm"
     inkscape:current-layer="layer3"
     showgrid="false"
     inkscape:window-width="960"
     inkscape:window-height="1001"
     inkscape:window-x="951"
     inkscape:window-y="-9"
     inkscape:window-maximized="0"
     inkscape:pagecheckerboard="true"
     fit-margin-top="0"
     fit-margin-left="0"
     fit-margin-right="0"
     fit-margin-bottom="0" />
  <metadata
     id="metadata5">
    <rdf:RDF>
      <cc:Work
         rdf:about="">
        <dc:format>image/svg+xml</dc:format>
        <dc:type
           rdf:resource="http://purl.org/dc/dcmitype/StillImage" />
        <dc:title></dc:title>
      </cc:Work>
    </rdf:RDF>
  </metadata>
  <g
     inkscape:groupmode="layer"
     id="layer3"
     inkscape:label="Bottom"
     transform="translate(-57.543109,-81.779457)">
    <path
       style="display:inline;fill:#000000;fill-opacity:1;stroke:#000000;stroke-width:0.16869135;stroke-miterlimit:4;stroke-dasharray:none;stroke-opacity:1"
       d="m 75.931815,81.868568 c -1.378224,0.103623 -4.499493,1.930526 -8.074922,4.726315 3.096794,-2.273934 5.636047,-3.437422 6.423883,-2.943428 1.067689,0.673686 -1.397244,4.146336 -5.505668,7.756502 -1.496457,1.314985 -3.004581,2.466861 -4.368949,3.367448 -2.381243,1.571803 -4.324592,2.378154 -5.003768,1.950258 -0.794797,-0.501903 0.364532,-2.598456 2.922016,-5.284234 -3.572367,3.512608 -5.376307,6.230815 -4.460887,6.721745 0.747207,0.394967 3.105034,-0.744634 6.049218,-2.790231 1.656876,-1.151184 3.499453,-2.589299 5.345177,-4.202315 1.402151,-1.22536 2.660893,-2.42474 3.725882,-3.533315 1.512379,-1.574275 2.634025,-2.965428 3.220764,-3.987813 0.510557,-0.88964 0.616092,-1.500057 0.221611,-1.708935 -0.120434,-0.06369 -0.285822,-0.08776 -0.494357,-0.07199 0,0 0,-7e-6 0,-7e-6"
       id="path4924" />
    <path
       style="display:inline;fill:#000000;fill-opacity:1;stroke:#000000;stroke-width:0.16869135;stroke-miterlimit:4;stroke-dasharray:none;stroke-opacity:1"
       d="m 62.324407,91.441429 c 0.841259,-0.828647 1.754439,-1.674874 2.707372,-2.508873 0.925899,-0.809192 1.878146,-1.597141 2.825114,-2.337673 -0.984994,0.722577 -1.986428,1.528703 -2.948832,2.373725 -0.930082,0.817523 -1.80645,1.656296 -2.583654,2.472821 0,0 0,0 0,0"
       id="path4546" />
  </g>
  <g
     inkscape:label="Layer 1"
     inkscape:groupmode="layer"
     id="layer1"
     style="display:inline"
     transform="translate(-57.543109,-81.779457)">
    <path
       d="M64.852788 83.629305C64.852788 83.629305 64.852788 86.38452025 64.852788 89.1397355C64.852788 91.89495075 64.852788 94.650166 64.852788 94.650166C64.852788 95.4138286667 64.8648446667 95.9604503333 64.888958 96.290031C64.9130713333 96.6115736667 64.9733606667 96.876846 65.069826 97.085848C65.1743273333 97.2948506667 65.3350983333 97.443564 65.552139 97.531988C65.777219 97.6204126667 66.0867036667 97.6887406667 66.480593 97.736972C66.480593 97.736972 67.155831 97.809322 67.155831 97.809322C67.2201376667 97.8495153333 67.252291 97.9379393333 67.252291 98.074594C67.252291 98.251442 67.2000403333 98.368001 67.095539 98.424271C65.6968303333 98.3760376667 64.6277023333 98.351921 63.888155 98.351921C62.963721 98.351921 61.9589016667 98.3760376667 60.873697 98.424271C60.7772343333 98.3599643333 60.729003 98.2434053333 60.729003 98.074594C60.729003 97.962054 60.7611563333 97.87363 60.825463 97.809322C60.825463 97.809322 61.34395 97.736972 61.34395 97.736972C61.8423406667 97.6646246667 62.1879986667 97.556104 62.380924 97.41141C62.581888 97.2586773333 62.7064856667 97.0054626667 62.754717 96.651766C62.8029503333 96.29807 62.827067 95.63087 62.827067 94.650166C62.827067 94.650166 62.827067 85.534443 62.827067 85.534443C62.827067 84.7305876667 62.8069703333 84.171908 62.766777 83.858404C62.7265836667 83.5449006667 62.6261016667 83.315802 62.465331 83.171108C62.3045596667 83.0183753333 62.0392873333 82.925932 61.669514 82.893778C61.669514 82.893778 60.777234 82.797318 60.777234 82.797318C60.6968486667 82.716932 60.656656 82.61645 60.656656 82.495872C60.656656 82.3431393333 60.7129256667 82.238638 60.825465 82.182368C61.4203183333 82.093944 62.063403 82.0376743333 62.754719 82.013559C63.454073 81.9894456667 64.4428153333 81.977389 65.720946 81.977389C67.8109706667 81.977389 69.390547 82.30697 70.459675 82.966132C71.0545283333 83.3359053333 71.5328223333 83.838315 71.894557 84.473361C72.2562923333 85.1003683333 72.43716 85.831877 72.43716 86.667887C72.43716 87.6968216667 72.191984 88.524793 71.701632 89.151801C71.2193186667 89.7788083333 70.6405426667 90.2611216667 69.965304 90.598741C68.9363686667 91.089093 67.798913 91.334269 66.552937 91.334269C66.472551 91.2940756667 66.432358 91.2056513333 66.432358 91.068996C66.432358 90.9403793333 66.4645113333 90.864013 66.528818 90.839897C67.8149866667 90.5987403333 68.7394206667 90.128485 69.30212 89.429131C69.8728573333 88.7297763333 70.158226 87.8174 70.158226 86.692002C70.158226 85.47818 69.812568 84.5175726667 69.121252 83.81018C68.4379746667 83.1027866667 67.4612903333 82.74909 66.191199 82.74909C65.7410396667 82.74909 65.4275356667 82.7691866667 65.250687 82.80938C65.073839 82.8495733333 64.9612993333 82.9219203333 64.913068 83.026421C64.8728746667 83.1309223333 64.852778 83.331886 64.852778 83.629312C64.852778 83.629312 64.852788 83.629305 64.852788 83.629305"
       style="font-style:normal;font-variant:normal;font-weight:normal;font-stretch:normal;font-size:24.69444466px;line-height:75;font-family:Garamond;-inkscape-font-specification:Garamond;letter-spacing:0px;word-spacing:0px;fill:#000000;fill-opacity:1;stroke:none;stroke-width:0.26458332"
       id="path4646"
       inkscape:connector-curvature="0" />
  </g>
</svg>
