  0
SECTION
  2
HEADER
  9
$ACADVER
  1
AC1014
  9
$HANDSEED
  5
FFFF
  9
$MEASUREMENT
 70
     1
  0
ENDSEC
  0
SECTION
  2
TABLES
  0
TABLE
  2
VPORT
  5
8
330
0
100
AcDbSymbolTable
 70
     4
  0
VPORT
  5
2E
330
8
100
AcDbSymbolTableRecord
100
AcDbViewportTableRecord
  2
*ACTIVE
 70
     0
 10
0.0
 20
0.0
 11
1.0
 21
1.0
 12
210.0
 22
148.5
 13
0.0
 23
0.0
 14
10.0
 24
10.0
 15
10.0
 25
10.0
 16
0.0
 26
0.0
 36
1.0
 17
0.0
 27
0.0
 37
0.0
 40
341.0
 41
1.24
 42
50.0
 43
0.0
 44
0.0
 50
0.0
 51
0.0
 71
     0
 72
   100
 73
     1
 74
     3
 75
     0
 76
     0
 77
     0
 78
     0
  0
ENDTAB
  0
TABLE
  2
LTYPE
  5
5
330
0
100
AcDbSymbolTable
 70
     1
  0
LTYPE
  5
14
330
5
100
AcDbSymbolTableRecord
100
AcDbLinetypeTableRecord
  2
BYBLOCK
 70
     0
  3

 72
    65
 73
     0
 40
0.0
  0
LTYPE
  5
15
330
5
100
AcDbSymbolTableRecord
100
AcDbLinetypeTableRecord
  2
BYLAYER
 70
     0
  3

 72
    65
 73
     0
 40
0.0
  0
LTYPE
  5
16
330
5
100
AcDbSymbolTableRecord
100
AcDbLinetypeTableRecord
  2
CONTINUOUS
 70
     0
  3
Solid line
 72
    65
 73
     0
 40
0.0
  0
ENDTAB
  0
TABLE
  2
LAYER
  5
2
100
AcDbSymbolTable
 70
3
  0
LAYER
  5
50
100
AcDbSymbolTableRecord
100
AcDbLayerTableRecord
  2
0
 70
0
  6
CONTINUOUS
  0
LAYER
  5
51
100
AcDbSymbolTableRecord
100
AcDbLayerTableRecord
  2
Bottom
 70
0
  6
CONTINUOUS
  0
LAYER
  5
52
100
AcDbSymbolTableRecord
100
AcDbLayerTableRecord
  2
Layer_1
 70
0
  6
CONTINUOUS
  0
ENDTAB
  0
TABLE
  2
STYLE
  5
3
330
0
100
AcDbSymbolTable
 70
     1
  0
STYLE
  5
11
330
3
100
AcDbSymbolTableRecord
100
AcDbTextStyleTableRecord
  2
STANDARD
 70
     0
 40
0.0
 41
1.0
 50
0.0
 71
     0
 42
2.5
  3
txt
  4

  0
ENDTAB
  0
TABLE
  2
VIEW
  5
6
330
0
100
AcDbSymbolTable
 70
     0
  0
ENDTAB
  0
TABLE
  2
UCS
  5
7
330
0
100
AcDbSymbolTable
 70
     0
  0
ENDTAB
  0
TABLE
  2
APPID
  5
9
330
0
100
AcDbSymbolTable
 70
     2
  0
APPID
  5
12
330
9
100
AcDbSymbolTableRecord
100
AcDbRegAppTableRecord
  2
ACAD
 70
     0
  0
ENDTAB
  0
TABLE
  2
DIMSTYLE
  5
A
330
0
100
AcDbSymbolTable
 70
     1
  0
DIMSTYLE
105
27
330
A
100
AcDbSymbolTableRecord
100
AcDbDimStyleTableRecord
  2
ISO-25
 70
     0
  3

  4

  5

  6

  7

 40
1.0
 41
2.5
 42
0.625
 43
3.75
 44
1.25
 45
0.0
 46
0.0
 47
0.0
 48
0.0
140
2.5
141
2.5
142
0.0
143
0.03937007874016
144
1.0
145
0.0
146
1.0
147
0.625
 71
     0
 72
     0
 73
     0
 74
     0
 75
     0
 76
     0
 77
     1
 78
     8
170
     0
171
     3
172
     1
173
     0
174
     0
175
     0
176
     0
177
     0
178
     0
270
     2
271
     2
272
     2
273
     2
274
     3
340
11
275
     0
280
     0
281
     0
282
     0
283
     0
284
     8
285
     0
286
     0
287
     3
288
     0
  0
ENDTAB
  0
TABLE
  2
BLOCK_RECORD
  5
1
330
0
100
AcDbSymbolTable
 70
     1
  0
BLOCK_RECORD
  5
1F
330
1
100
AcDbSymbolTableRecord
100
AcDbBlockTableRecord
  2
*MODEL_SPACE
  0
BLOCK_RECORD
  5
1B
330
1
100
AcDbSymbolTableRecord
100
AcDbBlockTableRecord
  2
*PAPER_SPACE
  0
ENDTAB
  0
ENDSEC
  0
SECTION
  2
BLOCKS
  0
BLOCK
  5
20
330
1F
100
AcDbEntity
  8
0
100
AcDbBlockBegin
  2
*MODEL_SPACE
 70
     0
 10
0.0
 20
0.0
 30
0.0
  3
*MODEL_SPACE
  1

  0
ENDBLK
  5
21
330
1F
100
AcDbEntity
  8
0
100
AcDbBlockEnd
  0
BLOCK
  5
1C
330
1B
100
AcDbEntity
 67
     1
  8
0
100
AcDbBlockBegin
  2
*PAPER_SPACE
  1

  0
ENDBLK
  5
1D
330
1B
100
AcDbEntity
 67
     1
  8
0
100
AcDbBlockEnd
  0
ENDSEC
  0
SECTION
  2
ENTITIES
  0
SPLINE
  5
100
100
AcDbEntity
  8
Bottom
 62
7
100
AcDbSpline
 70
8
 71
3
 72
8
 73
4
 74
0
 40
0
 40
0
 40
0
 40
0
 40
1
 40
1
 40
1
 40
1
 10
52.125466
 20
46.929546
 30
0.0
 10
48.218689
 20
46.635812
 30
0.0
 10
39.370997
 20
41.457189
 30
0.0
 10
29.235923
 20
33.532118
 30
0.0
  0
SPLINE
  5
101
100
AcDbEntity
  8
Bottom
 62
7
100
AcDbSpline
 70
8
 71
3
 72
8
 73
4
 74
0
 40
0
 40
0
 40
0
 40
0
 40
1
 40
1
 40
1
 40
1
 10
29.235923
 20
33.532118
 30
0.0
 10
38.014237
 20
39.977915
 30
0.0
 10
45.212119
 20
43.275991
 30
0.0
 10
47.445355
 20
41.875693
 30
0.0
  0
SPLINE
  5
102
100
AcDbEntity
  8
Bottom
 62
7
100
AcDbSpline
 70
8
 71
3
 72
8
 73
4
 74
0
 40
0
 40
0
 40
0
 40
0
 40
1
 40
1
 40
1
 40
1
 10
47.445355
 20
41.875693
 30
0.0
 10
50.471875
 20
39.966032
 30
0.0
 10
43.484664
 20
30.122300
 30
0.0
 10
31.838737
 20
19.888758
 30
0.0
  0
SPLINE
  5
103
100
AcDbEntity
  8
Bottom
 62
7
100
AcDbSpline
 70
8
 71
3
 72
8
 73
4
 74
0
 40
0
 40
0
 40
0
 40
0
 40
1
 40
1
 40
1
 40
1
 10
31.838737
 20
19.888758
 30
0.0
 10
27.596812
 20
16.161242
 30
0.0
 10
23.321815
 20
12.896082
 30
0.0
 10
19.454315
 20
10.343237
 30
0.0
  0
SPLINE
  5
104
100
AcDbEntity
  8
Bottom
 62
7
100
AcDbSpline
 70
8
 71
3
 72
8
 73
4
 74
0
 40
0
 40
0
 40
0
 40
0
 40
1
 40
1
 40
1
 40
1
 10
19.454315
 20
10.343237
 30
0.0
 10
12.704335
 20
5.887732
 30
0.0
 10
7.195629
 20
3.602013
 30
0.0
 10
5.270406
 20
4.814946
 30
0.0
  0
SPLINE
  5
105
100
AcDbEntity
  8
Bottom
 62
7
100
AcDbSpline
 70
8
 71
3
 72
8
 73
4
 74
0
 40
0
 40
0
 40
0
 40
0
 40
1
 40
1
 40
1
 40
1
 10
5.270406
 20
4.814946
 30
0.0
 10
3.017438
 20
6.237663
 30
0.0
 10
6.303725
 20
12.180648
 30
0.0
 10
13.553286
 20
19.793877
 30
0.0
  0
SPLINE
  5
106
100
AcDbEntity
  8
Bottom
 62
7
100
AcDbSpline
 70
8
 71
3
 72
8
 73
4
 74
0
 40
0
 40
0
 40
0
 40
0
 40
1
 40
1
 40
1
 40
1
 10
13.553286
 20
19.793877
 30
0.0
 10
3.426891
 20
9.836878
 30
0.0
 10
-1.686640
 20
2.131724
 30
0.0
 10
0.908252
 20
0.740112
 30
0.0
  0
SPLINE
  5
107
100
AcDbEntity
  8
Bottom
 62
7
100
AcDbSpline
 70
8
 71
3
 72
8
 73
4
 74
0
 40
0
 40
0
 40
0
 40
0
 40
1
 40
1
 40
1
 40
1
 10
0.908252
 20
0.740112
 30
0.0
 10
3.026319
 20
-0.379480
 30
0.0
 10
9.709923
 20
2.850885
 30
0.0
 10
18.055641
 20
8.649428
 30
0.0
  0
SPLINE
  5
108
100
AcDbEntity
  8
Bottom
 62
7
100
AcDbSpline
 70
8
 71
3
 72
8
 73
4
 74
0
 40
0
 40
0
 40
0
 40
0
 40
1
 40
1
 40
1
 40
1
 10
18.055641
 20
8.649428
 30
0.0
 10
22.752298
 20
11.912627
 30
0.0
 10
27.975351
 20
15.989173
 30
0.0
 10
33.207324
 20
20.561502
 30
0.0
  0
SPLINE
  5
109
100
AcDbEntity
  8
Bottom
 62
7
100
AcDbSpline
 70
8
 71
3
 72
8
 73
4
 74
0
 40
0
 40
0
 40
0
 40
0
 40
1
 40
1
 40
1
 40
1
 10
33.207324
 20
20.561502
 30
0.0
 10
37.181925
 20
24.034963
 30
0.0
 10
40.750013
 20
27.434781
 30
0.0
 10
43.768879
 20
30.577198
 30
0.0
  0
SPLINE
  5
10a
100
AcDbEntity
  8
Bottom
 62
7
100
AcDbSpline
 70
8
 71
3
 72
8
 73
4
 74
0
 40
0
 40
0
 40
0
 40
0
 40
1
 40
1
 40
1
 40
1
 10
43.768879
 20
30.577198
 30
0.0
 10
48.055938
 20
35.039710
 30
0.0
 10
51.235407
 20
38.983136
 30
0.0
 10
52.898604
 20
41.881235
 30
0.0
  0
SPLINE
  5
10b
100
AcDbEntity
  8
Bottom
 62
7
100
AcDbSpline
 70
8
 71
3
 72
8
 73
4
 74
0
 40
0
 40
0
 40
0
 40
0
 40
1
 40
1
 40
1
 40
1
 10
52.898604
 20
41.881235
 30
0.0
 10
54.345852
 20
44.403049
 30
0.0
 10
54.645007
 20
46.133365
 30
0.0
 10
53.526793
 20
46.725460
 30
0.0
  0
SPLINE
  5
10c
100
AcDbEntity
  8
Bottom
 62
7
100
AcDbSpline
 70
8
 71
3
 72
8
 73
4
 74
0
 40
0
 40
0
 40
0
 40
0
 40
1
 40
1
 40
1
 40
1
 10
53.526793
 20
46.725460
 30
0.0
 10
53.185405
 20
46.905999
 30
0.0
 10
52.716589
 20
46.974229
 30
0.0
 10
52.125466
 20
46.929526
 30
0.0
  0
LINE
  5
10d
100
AcDbEntity
  8
Bottom
 62
7
100
AcDbLine
 10
52.125466
 20
46.929526
 30
0.0
 11
52.125466
 21
46.929546
 31
0.0
  0
SPLINE
  5
10e
100
AcDbEntity
  8
Bottom
 62
7
100
AcDbSpline
 70
8
 71
3
 72
8
 73
4
 74
0
 40
0
 40
0
 40
0
 40
0
 40
1
 40
1
 40
1
 40
1
 10
13.553286
 20
19.793877
 30
0.0
 10
15.937957
 20
22.142798
 30
0.0
 10
18.526499
 20
24.541551
 30
0.0
 10
21.227726
 20
26.905643
 30
0.0
  0
SPLINE
  5
10f
100
AcDbEntity
  8
Bottom
 62
7
100
AcDbSpline
 70
8
 71
3
 72
8
 73
4
 74
0
 40
0
 40
0
 40
0
 40
0
 40
1
 40
1
 40
1
 40
1
 10
21.227726
 20
26.905643
 30
0.0
 10
23.852322
 20
29.199416
 30
0.0
 10
26.551604
 20
31.432972
 30
0.0
 10
29.235923
 20
33.532118
 30
0.0
  0
SPLINE
  5
110
100
AcDbEntity
  8
Bottom
 62
7
100
AcDbSpline
 70
8
 71
3
 72
8
 73
4
 74
0
 40
0
 40
0
 40
0
 40
0
 40
1
 40
1
 40
1
 40
1
 10
29.235923
 20
33.532118
 30
0.0
 10
26.443814
 20
31.483868
 30
0.0
 10
23.605104
 20
29.198786
 30
0.0
 10
20.877029
 20
26.803449
 30
0.0
  0
SPLINE
  5
111
100
AcDbEntity
  8
Bottom
 62
7
100
AcDbSpline
 70
8
 71
3
 72
8
 73
4
 74
0
 40
0
 40
0
 40
0
 40
0
 40
1
 40
1
 40
1
 40
1
 10
20.877029
 20
26.803449
 30
0.0
 10
18.240576
 20
24.486060
 30
0.0
 10
15.756384
 20
22.108436
 30
0.0
 10
13.553286
 20
19.793877
 30
0.0
  0
LINE
  5
112
100
AcDbEntity
  8
Bottom
 62
7
100
AcDbLine
 10
13.553286
 20
19.793877
 30
0.0
 11
13.553286
 21
19.793877
 31
0.0
  0
SPLINE
  5
113
100
AcDbEntity
  8
Layer_1
 62
7
100
AcDbSpline
 70
8
 71
3
 72
8
 73
4
 74
0
 40
0
 40
0
 40
0
 40
0
 40
1
 40
1
 40
1
 40
1
 10
20.720350
 20
41.938481
 30
0.0
 10
20.720350
 20
41.938481
 30
0.0
 10
20.720350
 20
34.128422
 30
0.0
 10
20.720350
 20
26.318363
 30
0.0
  0
SPLINE
  5
114
100
AcDbEntity
  8
Layer_1
 62
7
100
AcDbSpline
 70
8
 71
3
 72
8
 73
4
 74
0
 40
0
 40
0
 40
0
 40
0
 40
1
 40
1
 40
1
 40
1
 10
20.720350
 20
26.318363
 30
0.0
 10
20.720350
 20
18.508304
 30
0.0
 10
20.720350
 20
10.698245
 30
0.0
 10
20.720350
 20
10.698245
 30
0.0
  0
SPLINE
  5
115
100
AcDbEntity
  8
Layer_1
 62
7
100
AcDbSpline
 70
8
 71
3
 72
8
 73
4
 74
0
 40
0
 40
0
 40
0
 40
0
 40
1
 40
1
 40
1
 40
1
 10
20.720350
 20
10.698245
 30
0.0
 10
20.720350
 20
8.533532
 30
0.0
 10
20.754526
 20
6.984053
 30
0.0
 10
20.822879
 20
6.049809
 30
0.0
  0
SPLINE
  5
116
100
AcDbEntity
  8
Layer_1
 62
7
100
AcDbSpline
 70
8
 71
3
 72
8
 73
4
 74
0
 40
0
 40
0
 40
0
 40
0
 40
1
 40
1
 40
1
 40
1
 10
20.822879
 20
6.049809
 30
0.0
 10
20.891232
 20
5.138349
 30
0.0
 10
21.062131
 20
4.386396
 30
0.0
 10
21.335576
 20
3.793949
 30
0.0
  0
SPLINE
  5
117
100
AcDbEntity
  8
Layer_1
 62
7
100
AcDbSpline
 70
8
 71
3
 72
8
 73
4
 74
0
 40
0
 40
0
 40
0
 40
0
 40
1
 40
1
 40
1
 40
1
 10
21.335576
 20
3.793949
 30
0.0
 10
21.631800
 20
3.201501
 30
0.0
 10
22.087529
 20
2.779951
 30
0.0
 10
22.702762
 20
2.529300
 30
0.0
  0
SPLINE
  5
118
100
AcDbEntity
  8
Layer_1
 62
7
100
AcDbSpline
 70
8
 71
3
 72
8
 73
4
 74
0
 40
0
 40
0
 40
0
 40
0
 40
1
 40
1
 40
1
 40
1
 10
22.702762
 20
2.529300
 30
0.0
 10
23.340784
 20
2.278648
 30
0.0
 10
24.218064
 20
2.084962
 30
0.0
 10
25.334600
 20
1.948243
 30
0.0
  0
LINE
  5
119
100
AcDbEntity
  8
Layer_1
 62
7
100
AcDbLine
 10
25.334600
 20
1.948243
 30
0.0
 11
27.248661
 21
1.743157
 31
0.0
  0
SPLINE
  5
11a
100
AcDbEntity
  8
Layer_1
 62
7
100
AcDbSpline
 70
8
 71
3
 72
8
 73
4
 74
0
 40
0
 40
0
 40
0
 40
0
 40
1
 40
1
 40
1
 40
1
 10
27.248661
 20
1.743157
 30
0.0
 10
27.430947
 20
1.629223
 30
0.0
 10
27.522091
 20
1.378572
 30
0.0
 10
27.522091
 20
0.991205
 30
0.0
  0
SPLINE
  5
11b
100
AcDbEntity
  8
Layer_1
 62
7
100
AcDbSpline
 70
8
 71
3
 72
8
 73
4
 74
0
 40
0
 40
0
 40
0
 40
0
 40
1
 40
1
 40
1
 40
1
 10
27.522091
 20
0.991205
 30
0.0
 10
27.522091
 20
0.489903
 30
0.0
 10
27.373979
 20
0.159500
 30
0.0
 10
27.077754
 20
-0.000006
 30
0.0
  0
SPLINE
  5
11c
100
AcDbEntity
  8
Layer_1
 62
7
100
AcDbSpline
 70
8
 71
3
 72
8
 73
4
 74
0
 40
0
 40
0
 40
0
 40
0
 40
1
 40
1
 40
1
 40
1
 10
27.077754
 20
-0.000006
 30
0.0
 10
23.112911
 20
0.136719
 30
0.0
 10
20.082312
 20
0.205081
 30
0.0
 10
17.985957
 20
0.205081
 30
0.0
  0
SPLINE
  5
11d
100
AcDbEntity
  8
Layer_1
 62
7
100
AcDbSpline
 70
8
 71
3
 72
8
 73
4
 74
0
 40
0
 40
0
 40
0
 40
0
 40
1
 40
1
 40
1
 40
1
 10
17.985957
 20
0.205081
 30
0.0
 10
15.365514
 20
0.205081
 30
0.0
 10
12.517208
 20
0.136719
 30
0.0
 10
9.441037
 20
-0.000006
 30
0.0
  0
SPLINE
  5
11e
100
AcDbEntity
  8
Layer_1
 62
7
100
AcDbSpline
 70
8
 71
3
 72
8
 73
4
 74
0
 40
0
 40
0
 40
0
 40
0
 40
1
 40
1
 40
1
 40
1
 10
9.441037
 20
-0.000006
 30
0.0
 10
9.167599
 20
0.182281
 30
0.0
 10
9.030881
 20
0.512684
 30
0.0
 10
9.030881
 20
0.991205
 30
0.0
  0
SPLINE
  5
11f
100
AcDbEntity
  8
Layer_1
 62
7
100
AcDbSpline
 70
8
 71
3
 72
8
 73
4
 74
0
 40
0
 40
0
 40
0
 40
0
 40
1
 40
1
 40
1
 40
1
 10
9.030881
 20
0.991205
 30
0.0
 10
9.030881
 20
1.310216
 30
0.0
 10
9.122024
 20
1.560866
 30
0.0
 10
9.304311
 20
1.743157
 30
0.0
  0
LINE
  5
120
100
AcDbEntity
  8
Layer_1
 62
7
100
AcDbLine
 10
9.304311
 20
1.743157
 30
0.0
 11
10.774037
 21
1.948243
 31
0.0
  0
SPLINE
  5
121
100
AcDbEntity
  8
Layer_1
 62
7
100
AcDbSpline
 70
8
 71
3
 72
8
 73
4
 74
0
 40
0
 40
0
 40
0
 40
0
 40
1
 40
1
 40
1
 40
1
 10
10.774037
 20
1.948243
 30
0.0
 10
12.186798
 20
2.153323
 30
0.0
 10
13.166616
 20
2.460940
 30
0.0
 10
13.713491
 20
2.871096
 30
0.0
  0
SPLINE
  5
122
100
AcDbEntity
  8
Layer_1
 62
7
100
AcDbSpline
 70
8
 71
3
 72
8
 73
4
 74
0
 40
0
 40
0
 40
0
 40
0
 40
1
 40
1
 40
1
 40
1
 10
13.713491
 20
2.871096
 30
0.0
 10
14.283153
 20
3.304039
 30
0.0
 10
14.636343
 20
4.021813
 30
0.0
 10
14.773062
 20
5.024418
 30
0.0
  0
SPLINE
  5
123
100
AcDbEntity
  8
Layer_1
 62
7
100
AcDbSpline
 70
8
 71
3
 72
8
 73
4
 74
0
 40
0
 40
0
 40
0
 40
0
 40
1
 40
1
 40
1
 40
1
 10
14.773062
 20
5.024418
 30
0.0
 10
14.909786
 20
6.027021
 30
0.0
 10
14.978149
 20
7.918296
 30
0.0
 10
14.978149
 20
10.698245
 30
0.0
  0
LINE
  5
124
100
AcDbEntity
  8
Layer_1
 62
7
100
AcDbLine
 10
14.978149
 20
10.698245
 30
0.0
 11
14.978149
 21
36.538089
 31
0.0
  0
SPLINE
  5
125
100
AcDbEntity
  8
Layer_1
 62
7
100
AcDbSpline
 70
8
 71
3
 72
8
 73
4
 74
0
 40
0
 40
0
 40
0
 40
0
 40
1
 40
1
 40
1
 40
1
 10
14.978149
 20
36.538089
 30
0.0
 10
14.978149
 20
38.816734
 30
0.0
 10
14.921182
 20
40.400393
 30
0.0
 10
14.807248
 20
41.289066
 30
0.0
  0
SPLINE
  5
126
100
AcDbEntity
  8
Layer_1
 62
7
100
AcDbSpline
 70
8
 71
3
 72
8
 73
4
 74
0
 40
0
 40
0
 40
0
 40
0
 40
1
 40
1
 40
1
 40
1
 10
14.807248
 20
41.289066
 30
0.0
 10
14.693314
 20
42.177737
 30
0.0
 10
14.408483
 20
42.827151
 30
0.0
 10
13.952755
 20
43.237307
 30
0.0
  0
SPLINE
  5
127
100
AcDbEntity
  8
Layer_1
 62
7
100
AcDbSpline
 70
8
 71
3
 72
8
 73
4
 74
0
 40
0
 40
0
 40
0
 40
0
 40
1
 40
1
 40
1
 40
1
 10
13.952755
 20
43.237307
 30
0.0
 10
13.497026
 20
43.670250
 30
0.0
 10
12.745072
 20
43.932294
 30
0.0
 10
11.696896
 20
44.023439
 30
0.0
  0
LINE
  5
128
100
AcDbEntity
  8
Layer_1
 62
7
100
AcDbLine
 10
11.696896
 20
44.023439
 30
0.0
 11
9.167598
 21
44.296869
 31
0.0
  0
SPLINE
  5
129
100
AcDbEntity
  8
Layer_1
 62
7
100
AcDbSpline
 70
8
 71
3
 72
8
 73
4
 74
0
 40
0
 40
0
 40
0
 40
0
 40
1
 40
1
 40
1
 40
1
 10
9.167598
 20
44.296869
 30
0.0
 10
8.939734
 20
44.524735
 30
0.0
 10
8.825803
 20
44.809566
 30
0.0
 10
8.825803
 20
45.151362
 30
0.0
  0
SPLINE
  5
12a
100
AcDbEntity
  8
Layer_1
 62
7
100
AcDbSpline
 70
8
 71
3
 72
8
 73
4
 74
0
 40
0
 40
0
 40
0
 40
0
 40
1
 40
1
 40
1
 40
1
 10
8.825803
 20
45.151362
 30
0.0
 10
8.825803
 20
45.584305
 30
0.0
 10
8.985307
 20
45.880529
 30
0.0
 10
9.304316
 20
46.040034
 30
0.0
  0
SPLINE
  5
12b
100
AcDbEntity
  8
Layer_1
 62
7
100
AcDbSpline
 70
8
 71
3
 72
8
 73
4
 74
0
 40
0
 40
0
 40
0
 40
0
 40
1
 40
1
 40
1
 40
1
 10
9.304316
 20
46.040034
 30
0.0
 10
10.990515
 20
46.290685
 30
0.0
 10
12.813432
 20
46.450190
 30
0.0
 10
14.773068
 20
46.518548
 30
0.0
  0
SPLINE
  5
12c
100
AcDbEntity
  8
Layer_1
 62
7
100
AcDbSpline
 70
8
 71
3
 72
8
 73
4
 74
0
 40
0
 40
0
 40
0
 40
0
 40
1
 40
1
 40
1
 40
1
 10
14.773068
 20
46.518548
 30
0.0
 10
16.755489
 20
46.586901
 30
0.0
 10
19.558223
 20
46.621077
 30
0.0
 10
23.181270
 20
46.621077
 30
0.0
  0
SPLINE
  5
12d
100
AcDbEntity
  8
Layer_1
 62
7
100
AcDbSpline
 70
8
 71
3
 72
8
 73
4
 74
0
 40
0
 40
0
 40
0
 40
0
 40
1
 40
1
 40
1
 40
1
 10
23.181270
 20
46.621077
 30
0.0
 10
29.105750
 20
46.621077
 30
0.0
 10
33.583289
 20
45.686832
 30
0.0
 10
36.613888
 20
43.818341
 30
0.0
  0
SPLINE
  5
12e
100
AcDbEntity
  8
Layer_1
 62
7
100
AcDbSpline
 70
8
 71
3
 72
8
 73
4
 74
0
 40
0
 40
0
 40
0
 40
0
 40
1
 40
1
 40
1
 40
1
 10
36.613888
 20
43.818341
 30
0.0
 10
38.300086
 20
42.770165
 30
0.0
 10
39.655880
 20
41.346011
 30
0.0
 10
40.681270
 20
39.545881
 30
0.0
  0
SPLINE
  5
12f
100
AcDbEntity
  8
Layer_1
 62
7
100
AcDbSpline
 70
8
 71
3
 72
8
 73
4
 74
0
 40
0
 40
0
 40
0
 40
0
 40
1
 40
1
 40
1
 40
1
 10
40.681270
 20
39.545881
 30
0.0
 10
41.706661
 20
37.768537
 30
0.0
 10
42.219357
 20
35.694969
 30
0.0
 10
42.219357
 20
33.325177
 30
0.0
  0
SPLINE
  5
130
100
AcDbEntity
  8
Layer_1
 62
7
100
AcDbSpline
 70
8
 71
3
 72
8
 73
4
 74
0
 40
0
 40
0
 40
0
 40
0
 40
1
 40
1
 40
1
 40
1
 10
42.219357
 20
33.325177
 30
0.0
 10
42.219357
 20
30.408512
 30
0.0
 10
41.524370
 20
28.061507
 30
0.0
 10
40.134396
 20
26.284161
 30
0.0
  0
SPLINE
  5
131
100
AcDbEntity
  8
Layer_1
 62
7
100
AcDbSpline
 70
8
 71
3
 72
8
 73
4
 74
0
 40
0
 40
0
 40
0
 40
0
 40
1
 40
1
 40
1
 40
1
 10
40.134396
 20
26.284161
 30
0.0
 10
38.767209
 20
24.506818
 30
0.0
 10
37.126584
 20
23.139630
 30
0.0
 10
35.212521
 20
22.182599
 30
0.0
  0
SPLINE
  5
132
100
AcDbEntity
  8
Layer_1
 62
7
100
AcDbSpline
 70
8
 71
3
 72
8
 73
4
 74
0
 40
0
 40
0
 40
0
 40
0
 40
1
 40
1
 40
1
 40
1
 10
35.212521
 20
22.182599
 30
0.0
 10
32.295854
 20
20.792625
 30
0.0
 10
29.071570
 20
20.097638
 30
0.0
 10
25.539670
 20
20.097638
 30
0.0
  0
SPLINE
  5
133
100
AcDbEntity
  8
Layer_1
 62
7
100
AcDbSpline
 70
8
 71
3
 72
8
 73
4
 74
0
 40
0
 40
0
 40
0
 40
0
 40
1
 40
1
 40
1
 40
1
 10
25.539670
 20
20.097638
 30
0.0
 10
25.311804
 20
20.211572
 30
0.0
 10
25.197871
 20
20.462223
 30
0.0
 10
25.197871
 20
20.849593
 30
0.0
  0
SPLINE
  5
134
100
AcDbEntity
  8
Layer_1
 62
7
100
AcDbSpline
 70
8
 71
3
 72
8
 73
4
 74
0
 40
0
 40
0
 40
0
 40
0
 40
1
 40
1
 40
1
 40
1
 10
25.197871
 20
20.849593
 30
0.0
 10
25.197871
 20
21.214175
 30
0.0
 10
25.289014
 20
21.430647
 30
0.0
 10
25.471301
 20
21.499007
 30
0.0
  0
SPLINE
  5
135
100
AcDbEntity
  8
Layer_1
 62
7
100
AcDbSpline
 70
8
 71
3
 72
8
 73
4
 74
0
 40
0
 40
0
 40
0
 40
0
 40
1
 40
1
 40
1
 40
1
 10
25.471301
 20
21.499007
 30
0.0
 10
29.117134
 20
22.182601
 30
0.0
 10
31.737576
 20
23.515608
 30
0.0
 10
33.332630
 20
25.498029
 30
0.0
  0
SPLINE
  5
136
100
AcDbEntity
  8
Layer_1
 62
7
100
AcDbSpline
 70
8
 71
3
 72
8
 73
4
 74
0
 40
0
 40
0
 40
0
 40
0
 40
1
 40
1
 40
1
 40
1
 10
33.332630
 20
25.498029
 30
0.0
 10
34.950468
 20
27.480452
 30
0.0
 10
35.759387
 20
30.066715
 30
0.0
 10
35.759387
 20
33.256820
 30
0.0
  0
SPLINE
  5
137
100
AcDbEntity
  8
Layer_1
 62
7
100
AcDbSpline
 70
8
 71
3
 72
8
 73
4
 74
0
 40
0
 40
0
 40
0
 40
0
 40
1
 40
1
 40
1
 40
1
 10
35.759387
 20
33.256820
 30
0.0
 10
35.759387
 20
36.697575
 30
0.0
 10
34.779569
 20
39.420557
 30
0.0
 10
32.819933
 20
41.425764
 30
0.0
  0
SPLINE
  5
138
100
AcDbEntity
  8
Layer_1
 62
7
100
AcDbSpline
 70
8
 71
3
 72
8
 73
4
 74
0
 40
0
 40
0
 40
0
 40
0
 40
1
 40
1
 40
1
 40
1
 10
32.819933
 20
41.425764
 30
0.0
 10
30.883084
 20
43.430974
 30
0.0
 10
28.114530
 20
44.433578
 30
0.0
 10
24.514271
 20
44.433578
 30
0.0
  0
SPLINE
  5
139
100
AcDbEntity
  8
Layer_1
 62
7
100
AcDbSpline
 70
8
 71
3
 72
8
 73
4
 74
0
 40
0
 40
0
 40
0
 40
0
 40
1
 40
1
 40
1
 40
1
 10
24.514271
 20
44.433578
 30
0.0
 10
23.238229
 20
44.433578
 30
0.0
 10
22.349556
 20
44.376611
 30
0.0
 10
21.848253
 20
44.262677
 30
0.0
  0
SPLINE
  5
13a
100
AcDbEntity
  8
Layer_1
 62
7
100
AcDbSpline
 70
8
 71
3
 72
8
 73
4
 74
0
 40
0
 40
0
 40
0
 40
0
 40
1
 40
1
 40
1
 40
1
 10
21.848253
 20
44.262677
 30
0.0
 10
21.346951
 20
44.148744
 30
0.0
 10
21.027941
 20
43.943666
 30
0.0
 10
20.891222
 20
43.647443
 30
0.0
  0
SPLINE
  5
13b
100
AcDbEntity
  8
Layer_1
 62
7
100
AcDbSpline
 70
8
 71
3
 72
8
 73
4
 74
0
 40
0
 40
0
 40
0
 40
0
 40
1
 40
1
 40
1
 40
1
 10
20.891222
 20
43.647443
 30
0.0
 10
20.777289
 20
43.351219
 30
0.0
 10
20.720322
 20
42.781558
 30
0.0
 10
20.720322
 20
41.938461
 30
0.0
  0
LINE
  5
13c
100
AcDbEntity
  8
Layer_1
 62
7
100
AcDbLine
 10
20.720322
 20
41.938461
 30
0.0
 11
20.720350
 21
41.938481
 31
0.0
  0
ENDSEC
  0
SECTION
  2
OBJECTS
  0
DICTIONARY
  5
C
330
0
100
AcDbDictionary
  3
ACAD_GROUP
350
D
  3
ACAD_MLINESTYLE
350
17
  0
DICTIONARY
  5
D
330
C
100
AcDbDictionary
  0
DICTIONARY
  5
1A
330
C
100
AcDbDictionary
  0
DICTIONARY
  5
17
330
C
100
AcDbDictionary
  3
STANDARD
350
18
  0
DICTIONARY
  5
19
330
C
100
AcDbDictionary
  0
ENDSEC
  0
EOF
